<svg id="Layer_2" data-name="Layer 2" xmlns="http://www.w3.org/2000/svg" viewBox="0 0 822.05 130"><defs><style>.cls-1{fill:#84c290;}.cls-2{fill:#48b67a;}.cls-3{fill:#fcfcfc;}.cls-4{fill:#41a36b;}.cls-11,.cls-5{fill:#fff;}.cls-6{fill:#ffbc68;}.cls-7{fill:#fba756;}.cls-8{fill:#ffc953;}.cls-9{fill:#fdd08c;}.cls-10{fill:#c99434;}.cls-11{font-size:86px;font-family:GrafolitaScript-Regular, Grafolita Script;}.cls-12{letter-spacing:-0.03em;}.cls-13{letter-spacing:-0.08em;}.cls-14{letter-spacing:-0.07em;}</style></defs><title>logo</title><rect class="cls-1" x="312.4" y="44.32" width="19.25" height="6.12"/><rect class="cls-2" x="331.65" y="44.32" width="7.87" height="6.12"/><rect class="cls-3" x="319.4" y="44.32" width="0.87" height="6.12"/><rect class="cls-3" x="325.53" y="44.32" width="0.87" height="6.12"/><rect class="cls-2" x="320.28" y="44.32" width="5.25" height="6.12"/><rect class="cls-2" x="312.4" y="48.29" width="4.18" height="0.22"/><rect class="cls-2" x="327.47" y="48.51" width="4.18" height="0.22"/><rect class="cls-2" x="326.94" y="45.66" width="4.18" height="0.22"/><rect class="cls-2" x="312.71" y="45.34" width="4.18" height="0.22"/><rect class="cls-4" x="331.84" y="47.71" width="4.18" height="0.22"/><rect class="cls-4" x="334.19" y="45.88" width="4.18" height="0.22"/><rect class="cls-2" x="313.45" y="46.68" width="5.78" height="0.22"/><rect class="cls-1" x="343.69" y="44.32" width="19.25" height="6.12"/><rect class="cls-2" x="362.94" y="44.32" width="7.87" height="6.12"/><rect class="cls-3" x="350.69" y="44.32" width="0.87" height="6.12"/><rect class="cls-3" x="356.82" y="44.32" width="0.87" height="6.12"/><rect class="cls-2" x="351.57" y="44.32" width="5.25" height="6.12"/><rect class="cls-2" x="343.69" y="48.29" width="4.18" height="0.22"/><rect class="cls-2" x="358.76" y="48.51" width="4.18" height="0.22"/><rect class="cls-2" x="358.23" y="45.66" width="4.18" height="0.22"/><rect class="cls-2" x="344" y="45.34" width="4.18" height="0.22"/><rect class="cls-4" x="363.13" y="47.71" width="4.18" height="0.22"/><rect class="cls-4" x="365.48" y="45.88" width="4.18" height="0.22"/><rect class="cls-2" x="344.74" y="46.68" width="5.78" height="0.22"/><rect class="cls-1" x="356.38" y="43.83" width="19.25" height="6.12"/><rect class="cls-2" x="375.63" y="43.83" width="7.87" height="6.12"/><rect class="cls-3" x="363.38" y="43.83" width="0.87" height="6.12"/><rect class="cls-3" x="369.5" y="43.83" width="0.87" height="6.12"/><rect class="cls-2" x="364.25" y="43.83" width="5.25" height="6.12"/><rect class="cls-2" x="356.38" y="47.8" width="4.18" height="0.22"/><rect class="cls-2" x="371.44" y="48.02" width="4.18" height="0.22"/><rect class="cls-2" x="370.91" y="45.17" width="4.18" height="0.22"/><rect class="cls-2" x="356.68" y="44.84" width="4.18" height="0.22"/><rect class="cls-4" x="375.82" y="47.22" width="4.18" height="0.22"/><rect class="cls-4" x="378.17" y="45.39" width="4.18" height="0.22"/><rect class="cls-2" x="357.43" y="46.18" width="5.78" height="0.22"/><rect class="cls-1" x="305.68" y="38.09" width="19.25" height="6.12"/><rect class="cls-2" x="324.93" y="38.09" width="7.87" height="6.12"/><rect class="cls-3" x="312.68" y="38.09" width="0.87" height="6.12"/><rect class="cls-3" x="318.8" y="38.09" width="0.87" height="6.12"/><rect class="cls-2" x="313.55" y="38.09" width="5.25" height="6.12"/><rect class="cls-2" x="305.68" y="42.05" width="4.18" height="0.22"/><rect class="cls-2" x="320.74" y="42.27" width="4.18" height="0.22"/><rect class="cls-2" x="320.21" y="39.43" width="4.18" height="0.22"/><rect class="cls-2" x="305.98" y="39.1" width="4.18" height="0.22"/><rect class="cls-4" x="325.12" y="41.48" width="4.18" height="0.22"/><rect class="cls-4" x="327.47" y="39.65" width="4.18" height="0.22"/><rect class="cls-2" x="306.73" y="40.44" width="5.78" height="0.22"/><rect class="cls-1" x="317.56" y="32.1" width="19.25" height="6.12"/><rect class="cls-2" x="336.81" y="32.1" width="7.87" height="6.12"/><rect class="cls-3" x="324.56" y="32.1" width="0.87" height="6.12"/><rect class="cls-3" x="330.68" y="32.1" width="0.87" height="6.12"/><rect class="cls-2" x="325.43" y="32.1" width="5.25" height="6.12"/><rect class="cls-2" x="317.56" y="36.07" width="4.18" height="0.22"/><rect class="cls-2" x="332.62" y="36.29" width="4.18" height="0.22"/><rect class="cls-2" x="332.09" y="33.44" width="4.18" height="0.22"/><rect class="cls-2" x="317.86" y="33.11" width="4.18" height="0.22"/><rect class="cls-4" x="337" y="35.49" width="4.18" height="0.22"/><rect class="cls-4" x="339.35" y="33.66" width="4.18" height="0.22"/><rect class="cls-2" x="318.61" y="34.45" width="5.78" height="0.22"/><rect class="cls-1" x="349.65" y="32.43" width="19.25" height="6.12"/><rect class="cls-2" x="368.9" y="32.43" width="7.87" height="6.12"/><rect class="cls-3" x="356.65" y="32.43" width="0.87" height="6.12"/><rect class="cls-3" x="362.78" y="32.43" width="0.87" height="6.12"/><rect class="cls-2" x="357.53" y="32.43" width="5.25" height="6.12"/><rect class="cls-2" x="349.65" y="36.4" width="4.18" height="0.22"/><rect class="cls-2" x="364.72" y="36.61" width="4.18" height="0.22"/><rect class="cls-2" x="364.19" y="33.77" width="4.18" height="0.22"/><rect class="cls-2" x="349.96" y="33.44" width="4.18" height="0.22"/><rect class="cls-4" x="369.09" y="35.82" width="4.18" height="0.22"/><rect class="cls-4" x="371.44" y="33.99" width="4.18" height="0.22"/><rect class="cls-2" x="350.71" y="34.78" width="5.78" height="0.22"/><rect class="cls-1" x="456.12" y="15.43" width="19.25" height="6.12"/><rect class="cls-2" x="475.36" y="15.43" width="7.87" height="6.12"/><rect class="cls-3" x="463.12" y="15.43" width="0.87" height="6.12"/><rect class="cls-3" x="469.24" y="15.43" width="0.87" height="6.12"/><rect class="cls-2" x="463.99" y="15.43" width="5.25" height="6.12"/><rect class="cls-2" x="456.12" y="19.39" width="4.18" height="0.22"/><rect class="cls-2" x="471.18" y="19.61" width="4.18" height="0.22"/><rect class="cls-2" x="470.65" y="16.77" width="4.18" height="0.22"/><rect class="cls-2" x="456.42" y="16.44" width="4.18" height="0.22"/><rect class="cls-4" x="475.55" y="18.82" width="4.18" height="0.22"/><rect class="cls-4" x="477.91" y="16.98" width="4.18" height="0.22"/><rect class="cls-2" x="457.17" y="17.78" width="5.78" height="0.22"/><rect class="cls-1" x="335.15" y="26.66" width="19.25" height="6.12"/><rect class="cls-2" x="354.4" y="26.66" width="7.87" height="6.12"/><rect class="cls-3" x="342.15" y="26.66" width="0.87" height="6.12"/><rect class="cls-3" x="348.27" y="26.66" width="0.87" height="6.12"/><rect class="cls-2" x="343.03" y="26.66" width="5.25" height="6.12"/><rect class="cls-2" x="335.15" y="30.63" width="4.18" height="0.22"/><rect class="cls-2" x="350.21" y="30.85" width="4.18" height="0.22"/><rect class="cls-2" x="349.68" y="28" width="4.18" height="0.22"/><rect class="cls-2" x="335.45" y="27.67" width="4.18" height="0.22"/><rect class="cls-4" x="354.59" y="30.05" width="4.18" height="0.22"/><rect class="cls-4" x="356.94" y="28.22" width="4.18" height="0.22"/><rect class="cls-2" x="336.2" y="29.01" width="5.78" height="0.22"/><rect class="cls-1" x="306.72" y="25.95" width="19.25" height="6.12"/><rect class="cls-2" x="325.97" y="25.95" width="7.87" height="6.12"/><rect class="cls-3" x="313.72" y="25.95" width="0.87" height="6.12"/><rect class="cls-3" x="319.84" y="25.95" width="0.87" height="6.12"/><rect class="cls-2" x="314.59" y="25.95" width="5.25" height="6.12"/><rect class="cls-2" x="306.72" y="29.92" width="4.18" height="0.22"/><rect class="cls-2" x="321.78" y="30.13" width="4.18" height="0.22"/><rect class="cls-2" x="321.25" y="27.29" width="4.18" height="0.22"/><rect class="cls-2" x="307.02" y="26.96" width="4.18" height="0.22"/><rect class="cls-4" x="326.16" y="29.34" width="4.18" height="0.22"/><rect class="cls-4" x="328.51" y="27.51" width="4.18" height="0.22"/><rect class="cls-2" x="307.77" y="28.3" width="5.78" height="0.22"/><rect class="cls-1" x="324.22" y="20.54" width="19.25" height="6.12"/><rect class="cls-2" x="343.46" y="20.54" width="7.87" height="6.12"/><rect class="cls-3" x="331.21" y="20.54" width="0.87" height="6.12"/><rect class="cls-3" x="337.34" y="20.54" width="0.87" height="6.12"/><rect class="cls-2" x="332.09" y="20.54" width="5.25" height="6.12"/><rect class="cls-2" x="324.22" y="24.5" width="4.18" height="0.22"/><rect class="cls-2" x="339.28" y="24.72" width="4.18" height="0.22"/><rect class="cls-2" x="338.75" y="21.88" width="4.18" height="0.22"/><rect class="cls-2" x="324.52" y="21.55" width="4.18" height="0.22"/><rect class="cls-4" x="343.65" y="23.93" width="4.18" height="0.22"/><rect class="cls-4" x="346.01" y="22.1" width="4.18" height="0.22"/><rect class="cls-2" x="325.27" y="22.89" width="5.78" height="0.22"/><rect class="cls-1" x="472.48" y="8.4" width="19.25" height="6.12"/><rect class="cls-2" x="491.72" y="8.4" width="7.87" height="6.12"/><rect class="cls-3" x="479.48" y="8.4" width="0.87" height="6.12"/><rect class="cls-3" x="485.6" y="8.4" width="0.87" height="6.12"/><rect class="cls-2" x="480.35" y="8.4" width="5.25" height="6.12"/><rect class="cls-2" x="472.48" y="12.36" width="4.18" height="0.22"/><rect class="cls-2" x="487.54" y="12.58" width="4.18" height="0.22"/><rect class="cls-2" x="487.01" y="9.74" width="4.18" height="0.22"/><rect class="cls-2" x="472.78" y="9.41" width="4.18" height="0.22"/><rect class="cls-4" x="491.92" y="11.79" width="4.18" height="0.22"/><rect class="cls-4" x="494.27" y="9.96" width="4.18" height="0.22"/><rect class="cls-2" x="473.53" y="10.75" width="5.78" height="0.22"/><rect class="cls-1" x="487.61" y="15.43" width="19.25" height="6.12"/><rect class="cls-2" x="506.86" y="15.43" width="7.87" height="6.12"/><rect class="cls-3" x="494.61" y="15.43" width="0.87" height="6.12"/><rect class="cls-3" x="500.73" y="15.43" width="0.87" height="6.12"/><rect class="cls-2" x="495.49" y="15.43" width="5.25" height="6.12"/><rect class="cls-2" x="487.61" y="19.39" width="4.18" height="0.22"/><rect class="cls-2" x="502.67" y="19.61" width="4.18" height="0.22"/><rect class="cls-2" x="502.14" y="16.77" width="4.18" height="0.22"/><rect class="cls-2" x="487.91" y="16.44" width="4.18" height="0.22"/><rect class="cls-4" x="507.05" y="18.82" width="4.18" height="0.22"/><rect class="cls-4" x="509.4" y="16.98" width="4.18" height="0.22"/><rect class="cls-2" x="488.66" y="17.78" width="5.78" height="0.22"/><rect class="cls-1" x="337.13" y="38.2" width="19.25" height="6.12"/><rect class="cls-2" x="356.38" y="38.2" width="7.87" height="6.12"/><rect class="cls-3" x="344.13" y="38.2" width="0.87" height="6.12"/><rect class="cls-3" x="350.26" y="38.2" width="0.87" height="6.12"/><rect class="cls-2" x="345.01" y="38.2" width="5.25" height="6.12"/><rect class="cls-2" x="337.13" y="42.16" width="4.18" height="0.22"/><rect class="cls-2" x="352.2" y="42.38" width="4.18" height="0.22"/><rect class="cls-2" x="351.66" y="39.54" width="4.18" height="0.22"/><rect class="cls-2" x="337.43" y="39.21" width="4.18" height="0.22"/><rect class="cls-4" x="356.57" y="41.59" width="4.18" height="0.22"/><rect class="cls-4" x="358.92" y="39.76" width="4.18" height="0.22"/><rect class="cls-2" x="338.18" y="40.55" width="5.78" height="0.22"/><path class="cls-5" d="M340.72,81.07s7,11.37,52.5,0c0,0,14.87-1.75,14,2.62s-6.12,16.63-4.37,23.63h18.37a90.41,90.41,0,0,0-2.81-19.19,7.07,7.07,0,0,1,1.05-5.74c2.42-3.43,7.66-8.62,17.51-9.19,14.87-.88,48.12-9.63,49-21l-5.25-2.63s-9.62,17.5-49.86,14l-7-.87s-14-1.75-29.75,6.12-32.37,19.25-50.74,7C343.35,75.82,339.85,76.69,340.72,81.07Z"/><rect class="cls-5" x="394.87" y="107.32" width="34.12" height="7" rx="3.5" ry="3.5"/><rect class="cls-5" x="390.5" y="114.31" width="43.74" height="7" rx="3.5" ry="3.5"/><rect class="cls-5" x="386.13" y="121.31" width="52.49" height="7" rx="3.5" ry="3.5"/><circle class="cls-5" cx="340.63" cy="76.69" r="5.25"/><circle class="cls-5" cx="413.25" cy="46.07" r="5.25"/><circle class="cls-5" cx="484.99" cy="48.7" r="5.25"/><path class="cls-5" d="M485.86,40c19.81,0,35.87-7.83,35.87-17.5H450C450,32.12,466.05,40,485.86,40Z"/><rect class="cls-5" x="483.24" y="39.95" width="4.37" height="4.37"/><rect class="cls-5" x="410.62" y="49.57" width="4.37" height="15.75"/><path class="cls-5" d="M340.63,68c19.81,0,35.87-7.84,35.87-17.5H304.76C304.76,60.11,320.82,68,340.63,68Z"/><rect class="cls-5" x="338.01" y="67.95" width="4.37" height="4.37"/><rect class="cls-6" x="354.63" y="47.82" width="16.62" height="2.62" rx="1.31" ry="1.31"/><rect class="cls-7" x="357.26" y="47.82" width="0.87" height="2.62"/><rect class="cls-7" x="359" y="47.82" width="0.87" height="2.62"/><rect class="cls-7" x="366" y="47.82" width="0.87" height="2.62"/><rect class="cls-8" x="362.5" y="47.82" width="0.87" height="2.62"/><rect class="cls-9" x="355.51" y="47.82" width="0.87" height="2.62"/><rect class="cls-8" x="360.75" y="47.82" width="0.87" height="2.62"/><rect class="cls-10" x="367.75" y="47.82" width="0.87" height="2.62"/><rect class="cls-10" x="364.25" y="47.82" width="0.87" height="2.62"/><rect class="cls-6" x="356.38" y="45.2" width="16.62" height="2.62" rx="1.31" ry="1.31"/><rect class="cls-7" x="359" y="45.2" width="0.87" height="2.62"/><rect class="cls-7" x="360.75" y="45.2" width="0.87" height="2.62"/><rect class="cls-7" x="367.75" y="45.2" width="0.87" height="2.62"/><rect class="cls-8" x="364.25" y="45.2" width="0.87" height="2.62"/><rect class="cls-9" x="357.26" y="45.2" width="0.87" height="2.62"/><rect class="cls-8" x="362.5" y="45.2" width="0.87" height="2.62"/><rect class="cls-10" x="369.5" y="45.2" width="0.87" height="2.62"/><rect class="cls-10" x="366" y="45.2" width="0.87" height="2.62"/><rect class="cls-6" x="354.63" y="42.57" width="16.62" height="2.62" rx="1.31" ry="1.31"/><rect class="cls-7" x="357.26" y="42.57" width="0.87" height="2.62"/><rect class="cls-7" x="359" y="42.57" width="0.87" height="2.62"/><rect class="cls-7" x="366" y="42.57" width="0.87" height="2.62"/><rect class="cls-8" x="362.5" y="42.57" width="0.87" height="2.62"/><rect class="cls-9" x="355.51" y="42.57" width="0.87" height="2.62"/><rect class="cls-8" x="360.75" y="42.57" width="0.87" height="2.62"/><rect class="cls-10" x="367.75" y="42.57" width="0.87" height="2.62"/><rect class="cls-10" x="364.25" y="42.57" width="0.87" height="2.62"/><rect class="cls-6" x="335.59" y="47.82" width="16.62" height="2.62" rx="1.31" ry="1.31"/><rect class="cls-7" x="338.21" y="47.82" width="0.87" height="2.62"/><rect class="cls-7" x="339.96" y="47.82" width="0.87" height="2.62"/><rect class="cls-7" x="346.96" y="47.82" width="0.87" height="2.62"/><rect class="cls-8" x="343.46" y="47.82" width="0.87" height="2.62"/><rect class="cls-9" x="336.46" y="47.82" width="0.87" height="2.62"/><rect class="cls-8" x="341.71" y="47.82" width="0.87" height="2.62"/><rect class="cls-10" x="348.71" y="47.82" width="0.87" height="2.62"/><rect class="cls-10" x="345.21" y="47.82" width="0.87" height="2.62"/><rect class="cls-6" x="359" y="39.95" width="16.62" height="2.62" rx="1.31" ry="1.31"/><rect class="cls-7" x="361.63" y="39.95" width="0.87" height="2.62"/><rect class="cls-7" x="363.38" y="39.95" width="0.87" height="2.62"/><rect class="cls-7" x="370.38" y="39.95" width="0.87" height="2.62"/><rect class="cls-8" x="366.88" y="39.95" width="0.87" height="2.62"/><rect class="cls-9" x="359.88" y="39.95" width="0.87" height="2.62"/><rect class="cls-8" x="365.13" y="39.95" width="0.87" height="2.62"/><rect class="cls-10" x="372.13" y="39.95" width="0.87" height="2.62"/><rect class="cls-10" x="368.63" y="39.95" width="0.87" height="2.62"/><rect class="cls-6" x="502.48" y="12.8" width="16.62" height="2.62" rx="1.31" ry="1.31"/><rect class="cls-7" x="505.11" y="12.8" width="0.87" height="2.62"/><rect class="cls-7" x="506.86" y="12.8" width="0.87" height="2.62"/><rect class="cls-7" x="513.86" y="12.8" width="0.87" height="2.62"/><rect class="cls-8" x="510.36" y="12.8" width="0.87" height="2.62"/><rect class="cls-9" x="503.36" y="12.8" width="0.87" height="2.62"/><rect class="cls-8" x="508.61" y="12.8" width="0.87" height="2.62"/><rect class="cls-10" x="515.61" y="12.8" width="0.87" height="2.62"/><rect class="cls-10" x="512.11" y="12.8" width="0.87" height="2.62"/><rect class="cls-6" x="480.35" y="19.23" width="16.62" height="2.62" rx="1.31" ry="1.31"/><rect class="cls-7" x="482.98" y="19.23" width="0.87" height="2.62"/><rect class="cls-7" x="484.73" y="19.23" width="0.87" height="2.62"/><rect class="cls-7" x="491.72" y="19.23" width="0.87" height="2.62"/><rect class="cls-8" x="488.22" y="19.23" width="0.87" height="2.62"/><rect class="cls-9" x="481.23" y="19.23" width="0.87" height="2.62"/><rect class="cls-8" x="486.47" y="19.23" width="0.87" height="2.62"/><rect class="cls-10" x="493.47" y="19.23" width="0.87" height="2.62"/><rect class="cls-10" x="489.97" y="19.23" width="0.87" height="2.62"/><rect class="cls-6" x="352.88" y="37.33" width="16.62" height="2.62" rx="1.31" ry="1.31"/><rect class="cls-7" x="355.51" y="37.33" width="0.87" height="2.62"/><rect class="cls-7" x="357.26" y="37.33" width="0.87" height="2.62"/><rect class="cls-7" x="364.25" y="37.33" width="0.87" height="2.62"/><rect class="cls-8" x="360.75" y="37.33" width="0.87" height="2.62"/><rect class="cls-9" x="353.76" y="37.33" width="0.87" height="2.62"/><rect class="cls-8" x="359" y="37.33" width="0.87" height="2.62"/><rect class="cls-10" x="366" y="37.33" width="0.87" height="2.62"/><rect class="cls-10" x="362.5" y="37.33" width="0.87" height="2.62"/><rect class="cls-6" x="478.16" y="14.11" width="16.62" height="2.62" rx="1.31" ry="1.31"/><rect class="cls-7" x="480.79" y="14.11" width="0.87" height="2.62"/><rect class="cls-7" x="482.54" y="14.11" width="0.87" height="2.62"/><rect class="cls-7" x="489.54" y="14.11" width="0.87" height="2.62"/><rect class="cls-8" x="486.04" y="14.11" width="0.87" height="2.62"/><rect class="cls-9" x="479.04" y="14.11" width="0.87" height="2.62"/><rect class="cls-8" x="484.29" y="14.11" width="0.87" height="2.62"/><rect class="cls-10" x="491.29" y="14.11" width="0.87" height="2.62"/><rect class="cls-10" x="487.79" y="14.11" width="0.87" height="2.62"/><rect class="cls-6" x="333.13" y="26.8" width="16.62" height="2.62" rx="1.31" ry="1.31"/><rect class="cls-7" x="335.75" y="26.8" width="0.87" height="2.62"/><rect class="cls-7" x="337.5" y="26.8" width="0.87" height="2.62"/><rect class="cls-7" x="344.5" y="26.8" width="0.87" height="2.62"/><rect class="cls-8" x="341" y="26.8" width="0.87" height="2.62"/><rect class="cls-9" x="334" y="26.8" width="0.87" height="2.62"/><rect class="cls-8" x="339.25" y="26.8" width="0.87" height="2.62"/><rect class="cls-10" x="346.25" y="26.8" width="0.87" height="2.62"/><rect class="cls-10" x="342.75" y="26.8" width="0.87" height="2.62"/><rect class="cls-6" x="314.77" y="47.77" width="16.62" height="2.62" rx="1.31" ry="1.31"/><rect class="cls-7" x="317.39" y="47.77" width="0.87" height="2.62"/><rect class="cls-7" x="319.14" y="47.77" width="0.87" height="2.62"/><rect class="cls-7" x="326.14" y="47.77" width="0.87" height="2.62"/><rect class="cls-8" x="322.64" y="47.77" width="0.87" height="2.62"/><rect class="cls-9" x="315.64" y="47.77" width="0.87" height="2.62"/><rect class="cls-8" x="320.89" y="47.77" width="0.87" height="2.62"/><rect class="cls-10" x="327.89" y="47.77" width="0.87" height="2.62"/><rect class="cls-10" x="324.39" y="47.77" width="0.87" height="2.62"/><rect class="cls-6" x="316.52" y="45.14" width="16.62" height="2.62" rx="1.31" ry="1.31"/><rect class="cls-7" x="319.14" y="45.14" width="0.87" height="2.62"/><rect class="cls-7" x="320.89" y="45.14" width="0.87" height="2.62"/><rect class="cls-7" x="327.89" y="45.14" width="0.87" height="2.62"/><rect class="cls-8" x="324.39" y="45.14" width="0.87" height="2.62"/><rect class="cls-9" x="317.39" y="45.14" width="0.87" height="2.62"/><rect class="cls-8" x="322.64" y="45.14" width="0.87" height="2.62"/><rect class="cls-10" x="329.64" y="45.14" width="0.87" height="2.62"/><rect class="cls-10" x="326.14" y="45.14" width="0.87" height="2.62"/><rect class="cls-6" x="314.77" y="42.52" width="16.62" height="2.62" rx="1.31" ry="1.31"/><rect class="cls-7" x="317.39" y="42.52" width="0.87" height="2.62"/><rect class="cls-7" x="319.14" y="42.52" width="0.87" height="2.62"/><rect class="cls-7" x="326.14" y="42.52" width="0.87" height="2.62"/><rect class="cls-8" x="322.64" y="42.52" width="0.87" height="2.62"/><rect class="cls-9" x="315.64" y="42.52" width="0.87" height="2.62"/><rect class="cls-8" x="320.89" y="42.52" width="0.87" height="2.62"/><rect class="cls-10" x="327.89" y="42.52" width="0.87" height="2.62"/><rect class="cls-10" x="324.39" y="42.52" width="0.87" height="2.62"/><rect class="cls-6" x="319.14" y="39.9" width="16.62" height="2.62" rx="1.31" ry="1.31"/><rect class="cls-7" x="321.77" y="39.9" width="0.87" height="2.62"/><rect class="cls-7" x="323.52" y="39.9" width="0.87" height="2.62"/><rect class="cls-7" x="330.52" y="39.9" width="0.87" height="2.62"/><rect class="cls-8" x="327.02" y="39.9" width="0.87" height="2.62"/><rect class="cls-9" x="320.02" y="39.9" width="0.87" height="2.62"/><rect class="cls-8" x="325.27" y="39.9" width="0.87" height="2.62"/><rect class="cls-10" x="332.27" y="39.9" width="0.87" height="2.62"/><rect class="cls-10" x="328.77" y="39.9" width="0.87" height="2.62"/><rect class="cls-6" x="338.65" y="45.14" width="16.62" height="2.62" rx="1.31" ry="1.31"/><rect class="cls-7" x="341.28" y="45.14" width="0.87" height="2.62"/><rect class="cls-7" x="343.03" y="45.14" width="0.87" height="2.62"/><rect class="cls-7" x="350.02" y="45.14" width="0.87" height="2.62"/><rect class="cls-8" x="346.52" y="45.14" width="0.87" height="2.62"/><rect class="cls-9" x="339.53" y="45.14" width="0.87" height="2.62"/><rect class="cls-8" x="344.77" y="45.14" width="0.87" height="2.62"/><rect class="cls-10" x="351.77" y="45.14" width="0.87" height="2.62"/><rect class="cls-10" x="348.27" y="45.14" width="0.87" height="2.62"/><rect class="cls-6" x="461.37" y="19.23" width="16.62" height="2.62" rx="1.31" ry="1.31"/><rect class="cls-7" x="463.99" y="19.23" width="0.87" height="2.62"/><rect class="cls-7" x="465.74" y="19.23" width="0.87" height="2.62"/><rect class="cls-7" x="472.74" y="19.23" width="0.87" height="2.62"/><rect class="cls-8" x="469.24" y="19.23" width="0.87" height="2.62"/><rect class="cls-9" x="462.24" y="19.23" width="0.87" height="2.62"/><rect class="cls-8" x="467.49" y="19.23" width="0.87" height="2.62"/><rect class="cls-10" x="474.49" y="19.23" width="0.87" height="2.62"/><rect class="cls-10" x="470.99" y="19.23" width="0.87" height="2.62"/><rect class="cls-6" x="484.29" y="17.18" width="16.62" height="2.62" rx="1.31" ry="1.31"/><rect class="cls-7" x="486.91" y="17.18" width="0.87" height="2.62"/><rect class="cls-7" x="488.66" y="17.18" width="0.87" height="2.62"/><rect class="cls-7" x="495.66" y="17.18" width="0.87" height="2.62"/><rect class="cls-8" x="492.16" y="17.18" width="0.87" height="2.62"/><rect class="cls-9" x="485.16" y="17.18" width="0.87" height="2.62"/><rect class="cls-8" x="490.41" y="17.18" width="0.87" height="2.62"/><rect class="cls-10" x="497.41" y="17.18" width="0.87" height="2.62"/><rect class="cls-10" x="493.91" y="17.18" width="0.87" height="2.62"/><rect class="cls-6" x="329.9" y="29.51" width="16.62" height="2.62" rx="1.31" ry="1.31"/><rect class="cls-7" x="332.53" y="29.51" width="0.87" height="2.62"/><rect class="cls-7" x="334.28" y="29.51" width="0.87" height="2.62"/><rect class="cls-7" x="341.28" y="29.51" width="0.87" height="2.62"/><rect class="cls-8" x="337.78" y="29.51" width="0.87" height="2.62"/><rect class="cls-9" x="330.78" y="29.51" width="0.87" height="2.62"/><rect class="cls-8" x="336.03" y="29.51" width="0.87" height="2.62"/><rect class="cls-10" x="343.03" y="29.51" width="0.87" height="2.62"/><rect class="cls-10" x="339.53" y="29.51" width="0.87" height="2.62"/><rect class="cls-6" x="300.32" y="48.43" width="12.76" height="2.01" rx="1.01" ry="1.01"/><rect class="cls-7" x="302.33" y="48.43" width="0.67" height="2.01"/><rect class="cls-7" x="303.67" y="48.43" width="0.67" height="2.01"/><rect class="cls-7" x="309.04" y="48.43" width="0.67" height="2.01"/><rect class="cls-8" x="306.36" y="48.43" width="0.67" height="2.01"/><rect class="cls-9" x="300.99" y="48.43" width="0.67" height="2.01"/><rect class="cls-8" x="305.02" y="48.43" width="0.67" height="2.01"/><rect class="cls-10" x="310.39" y="48.43" width="0.67" height="2.01"/><rect class="cls-10" x="307.7" y="48.43" width="0.67" height="2.01"/><rect class="cls-6" x="313.02" y="37.27" width="16.62" height="2.62" rx="1.31" ry="1.31"/><rect class="cls-7" x="315.64" y="37.27" width="0.87" height="2.62"/><rect class="cls-7" x="317.39" y="37.27" width="0.87" height="2.62"/><rect class="cls-7" x="324.39" y="37.27" width="0.87" height="2.62"/><rect class="cls-8" x="320.89" y="37.27" width="0.87" height="2.62"/><rect class="cls-9" x="313.89" y="37.27" width="0.87" height="2.62"/><rect class="cls-8" x="319.14" y="37.27" width="0.87" height="2.62"/><rect class="cls-10" x="326.14" y="37.27" width="0.87" height="2.62"/><rect class="cls-10" x="322.64" y="37.27" width="0.87" height="2.62"/><text class="cls-11" transform="translate(145.33 86.67)"><tspan class="cls-12">P</tspan><tspan x="59.77" y="0">a</tspan><tspan class="cls-13" x="96.92" y="0">y</tspan></text><text class="cls-11" transform="translate(526.33 86.67)">Ga<tspan class="cls-14" x="86.51" y="0">p</tspan></text></svg>